<?xml version="1.0" standalone="no"?>
<!DOCTYPE svg PUBLIC "-//W3C//DTD SVG 20010904//EN"
 "http://www.w3.org/TR/2001/REC-SVG-20010904/DTD/svg10.dtd">
<svg version="1.0" xmlns="http://www.w3.org/2000/svg"
 width="439.000000pt" height="439.000000pt" viewBox="0 0 439.000000 439.000000"
 preserveAspectRatio="xMidYMid meet">
<metadata>
Created by potrace 1.16, written by Peter Selinger 2001-2019
</metadata>
<g transform="translate(0.000000,439.000000) scale(0.100000,-0.100000)"
fill="#000000" stroke="none">
<path d="M2253 3468 c-53 -54 -60 -65 -50 -79 14 -19 65 -82 96 -119 l21 -25
21 25 c11 14 38 44 60 67 26 27 37 47 33 58 -4 9 -13 14 -20 11 -7 -3 -11 0
-8 7 2 7 -4 22 -14 32 -9 11 -28 35 -40 53 -13 17 -27 32 -30 32 -4 0 -35 -28
-69 -62z"/>
<path d="M1965 3430 c-51 -51 -66 -72 -58 -82 29 -38 302 -376 324 -402 l26
-30 31 35 c16 19 46 51 66 71 33 34 35 39 22 55 -8 10 -48 59 -89 108 -40 50
-114 140 -164 202 l-90 111 -68 -68z"/>
<path d="M1617 3211 c-31 -33 -57 -62 -57 -66 0 -3 26 -38 57 -78 32 -40 59
-74 60 -77 2 -2 33 26 69 62 l65 66 -61 73 c-34 41 -65 75 -69 77 -4 1 -33
-24 -64 -57z"/>
<path d="M1796 2986 l-168 -176 34 -47 c34 -47 35 -48 94 -51 l59 -3 135 142
c74 78 136 147 138 153 2 10 -24 44 -98 129 l-26 29 -168 -176z"/>
<path d="M2495 3067 c-22 -23 -95 -101 -162 -172 -68 -71 -123 -135 -123 -141
0 -6 8 -18 18 -27 15 -13 39 -17 113 -17 l94 0 90 93 c50 50 103 106 118 123
l28 31 -62 74 c-34 41 -64 75 -68 77 -4 1 -24 -17 -46 -41z"/>
<path d="M1398 2831 c-32 -32 -58 -63 -58 -67 1 -5 9 -19 20 -32 18 -22 24
-23 136 -20 l117 3 -69 84 c-38 47 -73 86 -79 87 -5 2 -36 -23 -67 -55z"/>
<path d="M557 2653 c-12 -11 -8 -138 5 -151 9 -9 9 -12 0 -12 -8 0 -12 -24
-12 -76 l0 -76 23 14 c18 12 23 26 25 72 l3 56 72 0 c100 0 117 13 117 90 0
50 -3 60 -20 65 -11 3 -20 11 -20 16 0 10 -183 13 -193 2z"/>
<path d="M1153 2653 c-9 -3 -13 -28 -13 -73 0 -45 4 -70 13 -74 10 -5 10 -7 0
-12 -14 -6 -19 -144 -5 -144 26 1 42 30 42 79 l0 51 38 0 c35 0 42 -4 73 -51
28 -41 88 -89 113 -89 3 0 -15 30 -40 68 -48 73 -51 82 -30 82 30 0 45 29 42
78 -5 64 -4 62 -20 62 -8 0 -16 7 -20 15 -4 12 -24 15 -93 14 -48 0 -94 -3
-100 -6z m125 -27 l62 1 0 -54 0 -54 -72 3 -73 3 -3 50 c-2 27 -9 53 -15 58
-7 5 -1 5 13 0 14 -4 53 -8 88 -7z"/>
<path d="M1447 2653 c-12 -11 -8 -138 5 -151 9 -9 9 -12 0 -12 -8 0 -12 -23
-12 -75 l0 -75 25 16 c21 14 25 24 25 69 l0 53 85 3 c100 5 105 9 105 92 0 42
-4 57 -14 57 -8 0 -16 7 -20 15 -4 12 -25 15 -99 15 -52 0 -97 -3 -100 -7z
m125 -27 l58 -1 0 -52 0 -53 -70 0 -70 0 0 50 c0 36 -5 52 -17 60 -14 8 -12 9
12 3 17 -4 56 -7 87 -7z"/>
<path d="M2034 2649 c-3 -6 -6 -37 -6 -69 0 -32 3 -63 6 -69 4 -6 4 -16 0 -22
-13 -21 -7 -141 8 -150 15 -10 208 -12 208 -3 0 31 -161 49 -188 22 -8 -8 -12
-8 -12 -1 0 6 7 14 16 17 12 5 15 17 12 55 l-3 49 82 4 c79 3 104 10 89 25 -4
4 -43 10 -88 13 l-81 5 -1 51 -1 52 56 -5 c40 -4 64 -1 87 11 18 9 32 19 32
21 0 11 -209 5 -216 -6z"/>
<path d="M2473 2653 c-15 -6 -18 -143 -4 -143 32 0 41 14 41 64 l0 51 75 0 75
0 0 -57 c0 -36 5 -58 13 -61 10 -4 10 -7 0 -18 -15 -15 -17 -117 -4 -138 8
-12 12 -12 25 -2 18 15 23 131 6 131 -5 0 -10 7 -10 15 0 8 5 15 10 15 6 0 10
26 10 58 l0 57 61 -2 c60 -1 109 12 109 29 0 8 -386 10 -407 1z"/>
<path d="M2980 2651 c0 -26 113 -39 170 -19 8 2 12 3 8 1 -5 -3 -8 -29 -8 -59
l0 -55 -71 3 -72 3 -1 47 c-1 35 -6 51 -21 62 -11 9 -23 16 -27 16 -11 0 -5
-134 6 -142 8 -6 8 -10 0 -15 -13 -9 -17 -153 -5 -153 4 0 17 10 30 21 19 18
22 30 19 70 l-3 49 73 0 72 0 0 -53 c0 -40 5 -58 18 -70 10 -10 21 -17 25 -17
3 0 6 69 6 154 0 129 -2 155 -15 160 -25 9 -204 7 -204 -3z"/>
<path d="M3513 2653 c-9 -3 -13 -28 -13 -73 0 -45 4 -70 13 -74 10 -5 10 -7 0
-12 -20 -9 -18 -150 3 -158 21 -8 214 -8 214 0 0 20 -42 33 -107 34 l-73 0 0
54 0 54 84 3 c46 2 88 7 92 12 15 15 -10 22 -92 26 l-84 3 0 53 c0 29 -3 55
-7 58 -5 2 -1 1 7 -1 40 -14 119 -13 149 2 17 9 31 19 31 21 0 7 -202 5 -217
-2z"/>
<path d="M1737 2483 c-4 -3 -7 -35 -7 -69 0 -78 4 -80 124 -83 128 -3 126 -4
126 85 0 41 -3 74 -6 74 -3 0 -14 -5 -25 -10 -25 -14 -26 -85 -2 -112 9 -10
11 -18 5 -18 -6 0 -14 5 -17 10 -9 15 -148 13 -165 -2 -12 -11 -12 -10 -3 2 6
8 13 37 15 63 5 39 2 49 -13 57 -21 12 -24 12 -32 3z"/>
<path d="M1762 2232 c-23 -26 -70 -75 -104 -109 -71 -72 -71 -66 7 -172 l47
-64 67 69 c274 282 284 293 271 309 -10 12 -37 15 -129 15 l-116 -1 -43 -47z"/>
<path d="M2418 2270 c-1 -5 -48 -56 -103 -112 -55 -57 -111 -115 -124 -130
l-23 -27 57 -80 c39 -53 62 -78 71 -73 7 4 72 70 145 147 72 77 144 152 160
166 37 33 36 42 -3 84 -30 34 -34 35 -104 35 -40 0 -74 -4 -76 -10z"/>
<path d="M2657 2268 c6 -7 30 -38 54 -68 25 -31 53 -67 63 -80 l17 -25 65 70
c97 105 90 115 -84 115 -98 0 -122 -3 -115 -12z"/>
<path d="M1930 2005 l-63 -64 39 -50 c215 -273 311 -390 319 -388 6 1 38 32
72 68 l63 65 -176 217 c-97 119 -179 217 -183 217 -4 0 -35 -29 -71 -65z"/>
<path d="M2564 2004 c3 -8 2 -13 -3 -9 -13 7 -82 -75 -74 -88 3 -6 1 -7 -4 -4
-6 4 -16 0 -22 -7 -10 -11 -8 -19 8 -38 10 -13 38 -47 61 -77 l42 -53 64 63
63 63 -26 35 c-78 105 -99 130 -107 131 -4 0 -5 -7 -2 -16z"/>
<path d="M1873 1689 c-29 -32 -53 -64 -53 -71 1 -7 29 -44 63 -81 l63 -68 54
62 c30 34 56 66 58 70 2 4 -14 27 -36 51 -21 24 -49 55 -62 71 -13 15 -26 27
-29 26 -3 0 -30 -27 -58 -60z"/>
<path d="M880 1265 c-36 -26 -50 -41 -136 -141 -47 -54 -75 -104 -59 -104 4 0
24 14 45 30 40 32 74 42 46 14 -30 -29 -12 -53 25 -34 15 9 24 9 32 1 14 -14
30 -14 22 0 -9 13 33 59 54 59 10 0 7 -9 -13 -29 l-27 -28 27 -7 c18 -5 32 -2
43 9 22 19 31 19 31 0 0 -24 34 -18 61 11 17 18 19 23 6 18 -9 -3 -17 -10 -17
-15 0 -5 -4 -9 -10 -9 -17 0 -11 20 15 45 13 14 21 25 18 25 -4 0 4 11 17 25
13 14 21 27 18 30 -2 3 -36 -24 -73 -60 -63 -59 -85 -75 -85 -60 0 3 9 16 20
28 l21 22 -28 7 c-27 7 -42 1 -119 -48 l-29 -19 18 27 c9 15 17 30 17 33 0 11
-37 4 -58 -11 -13 -9 -26 -14 -29 -11 -3 3 24 27 59 54 86 65 151 130 146 145
-7 21 -23 19 -58 -7z"/>
<path d="M3587 1274 c4 -12 -9 -31 -52 -70 -32 -30 -61 -52 -64 -49 -3 3 19
30 49 60 30 30 51 57 48 60 -8 9 -218 -217 -218 -235 0 -26 85 -18 115 10 14
13 25 29 25 36 0 17 -21 23 -42 12 -34 -17 -18 9 20 34 56 38 144 126 140 140
-2 6 -10 14 -16 16 -8 2 -10 -3 -5 -14z"/>
<path d="M3120 1106 c-16 -15 -105 -66 -115 -66 -4 0 3 12 15 28 l22 27 -22 3
c-11 2 -28 -2 -36 -9 -12 -10 -17 -9 -27 4 -11 15 -15 15 -41 2 -33 -17 -39
-19 -31 -6 15 26 -19 17 -60 -15 -50 -38 -70 -40 -36 -3 25 27 24 29 -21 31
-30 1 -57 -11 -107 -48 -2 -2 3 -10 11 -18 24 -24 99 -14 142 19 37 29 48 25
19 -7 -30 -34 -5 -30 43 6 49 37 71 41 40 7 -34 -38 -11 -42 34 -7 50 39 60
40 35 2 -16 -24 -16 -26 -1 -32 9 -3 22 -1 29 5 10 8 22 7 43 -1 24 -9 37 -8
67 7 35 16 54 41 22 29 -18 -7 -21 26 -3 44 17 17 -5 15 -22 -2z"/>
</g>
</svg>
